<svg width="30" height="36" fill="none" xmlns="http://www.w3.org/2000/svg"><path d="M27.189 36c.617 0 1.231-.586 1.37-1.308l1.406-7.312c.02-.102.035-.27.035-.375 0-.618-.383-1.32-.856-1.566l-6.562-3.375a1.437 1.437 0 00-.552-.135c-.368 0-.856.278-1.089.62l-2.906 4.261c-3.895-2.204-8.546-7.785-10.383-12.459l3.551-3.488c.286-.278.518-.863.518-1.305 0-.191-.05-.488-.113-.663L8.795 1.02C8.59.457 8.01 0 7.497 0c-.087 0-.228.019-.313.042L1.09 1.73C.488 1.896 0 2.633 0 3.374 0 21.41 12.182 36 27.188 36z" fill="#fff"/></svg>